<svg width="302" height="92" viewBox="0 0 302 92" fill="none" xmlns="http://www.w3.org/2000/svg">
<path d="M156.249 0.47233C153.903 -1.333 151.243 2.61764 151.243 2.61764C151.243 2.61764 148.583 -1.333 146.236 0.47233C144.825 1.55766 145.219 4.49099 151.243 9.73633C157.267 4.49099 157.659 1.55766 156.249 0.47233Z" fill="white"/>
<path d="M167.485 4.86833C167.485 6.34833 166.285 7.54834 164.805 7.54834C163.325 7.54834 162.125 6.34833 162.125 4.86833C162.125 3.38833 163.325 2.18831 164.805 2.18831C166.285 2.18831 167.485 3.38833 167.485 4.86833Z" fill="white"/>
<path d="M140.36 4.86833C140.36 6.34833 139.16 7.54834 137.681 7.54834C136.2 7.54834 135 6.34833 135 4.86833C135 3.38833 136.2 2.18831 137.681 2.18831C139.16 2.18831 140.36 3.38833 140.36 4.86833Z" fill="white"/>
<path d="M243.165 71.304C242.755 71.304 242.344 71.304 241.933 71.304C241.523 71.304 241.112 71.2853 240.701 71.248C237.752 71.0987 235.363 70.128 233.533 68.336C231.704 66.544 230.789 64.0987 230.789 61C230.789 58.312 231.555 55.2693 233.085 51.872C235.027 47.5787 238.685 43.5093 244.061 39.664C247.16 37.4613 250.464 35.7067 253.973 34.4C257.483 33.056 261.029 32.384 264.613 32.384C266.704 32.384 268.608 32.664 270.325 33.224C272.08 33.784 273.461 34.624 274.469 35.744C275.515 36.864 276.037 38.2827 276.037 40C276.037 40.5973 275.963 41.232 275.813 41.904C275.664 42.5387 275.421 43.1733 275.085 43.808L274.469 44.984C274.768 45.992 274.917 47.0187 274.917 48.064C274.917 52.7307 272.528 57.192 267.749 61.448C260.432 68.0187 252.237 71.304 243.165 71.304ZM242.829 70.184C250.184 70.184 257.184 67.216 263.829 61.28C268.608 57.024 271.184 52.9733 271.557 49.128C269.616 51.256 266.256 53.7947 261.477 56.744L261.029 56.856C260.731 56.856 261.216 56.3333 262.485 55.288L265.621 52.712C266.965 51.592 268.123 50.5467 269.093 49.576C270.064 48.6053 270.867 47.728 271.501 46.944C271.24 44.8533 270.232 43.0613 268.477 41.568C266.984 40.2613 265.192 39.2907 263.101 38.656C262.056 38.3947 260.339 38.2267 257.949 38.152C255.971 38.0773 254.981 37.984 254.981 37.872C254.981 37.8347 255.019 37.7787 255.093 37.704C256.848 37.144 258.528 36.864 260.133 36.864C260.88 36.864 261.701 36.92 262.597 37.032C263.493 37.144 264.464 37.3307 265.509 37.592C269.429 38.5253 272.173 40.4293 273.741 43.304C274.115 42.408 274.301 41.4933 274.301 40.56C274.301 39.0293 273.853 37.7413 272.957 36.696C272.099 35.6507 270.923 34.8667 269.429 34.344C267.973 33.8213 266.349 33.56 264.557 33.56C258.92 33.56 253.507 35.3707 248.317 38.992C243.501 42.352 239.693 46.6827 236.893 51.984C234.84 55.8293 233.813 59.2827 233.813 62.344C233.813 67.272 236.296 69.8667 241.261 70.128C241.523 70.1653 241.784 70.184 242.045 70.184C242.307 70.184 242.568 70.184 242.829 70.184ZM263.839 79.48C262.719 79.48 261.767 79.0133 260.983 78.08C260.199 77.1467 259.789 76.1387 259.751 75.056C259.863 74.608 260.031 74.384 260.255 74.384C260.479 74.384 260.61 74.664 260.647 75.224C260.685 75.8213 260.983 76.4 261.543 76.96C262.103 77.52 262.663 77.8 263.223 77.8C266.397 77.8 269.29 75.84 271.903 71.92C272.613 70.8747 273.471 69.344 274.479 67.328C275.525 65.312 276.701 62.8107 278.007 59.824L281.031 52.544C277.298 52.5067 275.431 52.0587 275.431 51.2C275.431 50.8267 275.637 50.4907 276.047 50.192C276.346 49.968 276.626 49.856 276.887 49.856C276.925 49.856 277.373 49.8747 278.231 49.912C279.127 49.912 280.434 49.9307 282.151 49.968C285.81 41.8293 289.17 37.76 292.231 37.76C293.426 37.76 294.602 38.32 295.759 39.44C296.058 39.7387 296.207 40.1307 296.207 40.616C296.207 41.7733 295.871 42.352 295.199 42.352C295.013 42.352 294.826 42.2027 294.639 41.904C294.49 41.6427 294.247 41.4373 293.911 41.288C293.575 41.1013 293.258 41.008 292.959 41.008C292.549 41.008 292.194 41.0453 291.895 41.12C291.597 41.1573 291.186 41.3813 290.663 41.792C290.141 42.1653 289.655 42.6507 289.207 43.248C288.759 43.808 288.405 44.2933 288.143 44.704C287.882 45.1147 287.527 45.768 287.079 46.664C286.631 47.5227 286.053 48.624 285.343 49.968H286.015C290.085 49.968 292.791 49.912 294.135 49.8C294.285 49.8373 294.359 49.912 294.359 50.024C294.359 50.3227 293.034 50.7333 290.383 51.256C289.338 51.4053 288.311 51.5733 287.303 51.76C286.295 51.9467 285.269 52.1333 284.223 52.32C283.738 53.3653 283.141 54.616 282.431 56.072C281.722 57.4907 280.919 59.0773 280.023 60.832C278.269 64.1173 276.831 66.7307 275.711 68.672C274.591 70.6133 273.807 71.9013 273.359 72.536C270.111 77.1653 266.938 79.48 263.839 79.48ZM299.287 48.736C298.653 48.736 298.093 48.5307 297.607 48.12C297.159 47.7093 296.935 47.2427 296.935 46.72C296.935 45.6747 297.645 45.152 299.063 45.152C299.586 45.152 300.109 45.3387 300.631 45.712C301.154 46.048 301.415 46.4773 301.415 47C301.415 47.448 301.173 47.8587 300.687 48.232C300.202 48.568 299.735 48.736 299.287 48.736ZM288.927 68.616C288.106 68.616 287.415 68.3547 286.855 67.832C286.333 67.272 286.071 66.3013 286.071 64.92C286.071 64.7333 286.071 64.5653 286.071 64.416C286.109 64.2293 286.146 64.0613 286.183 63.912C286.519 61.896 287.639 59.3573 289.543 56.296C291.634 52.8987 293.351 51.1813 294.695 51.144C295.031 51.144 295.442 51.2933 295.927 51.592C296.413 51.8533 296.655 52.152 296.655 52.488C296.655 52.488 295.237 54.3173 292.399 57.976C289.599 61.5973 288.199 64.1733 288.199 65.704C288.199 66.8987 288.666 67.496 289.599 67.496C290.234 67.496 290.981 67.2533 291.839 66.768C292.735 66.2827 293.575 65.76 294.359 65.2C295.143 64.64 295.666 64.248 295.927 64.024C296.935 63.1653 297.757 62.4373 298.391 61.84C299.063 61.2053 299.679 60.5333 300.239 59.824C300.613 59.3387 300.93 59.0027 301.191 58.816C301.49 58.6293 301.677 58.536 301.751 58.536C301.901 58.536 301.975 58.648 301.975 58.872C301.975 59.0587 301.751 59.432 301.303 59.992C300.893 60.552 300.314 61.2053 299.567 61.952C298.671 62.848 297.682 63.8187 296.599 64.864C295.517 65.9093 294.341 66.8053 293.071 67.552C291.802 68.2613 290.421 68.616 288.927 68.616Z" fill="white"/>
<path d="M195.362 75.504C193.346 75.504 191.535 75.112 189.93 74.328C188.362 73.544 187.111 72.4427 186.178 71.024C185.245 69.6053 184.778 67.944 184.778 66.04C184.778 65.816 184.778 65.6107 184.778 65.424C184.778 65.2 184.797 64.976 184.834 64.752C183.042 64.5653 181.399 64.192 179.906 63.632C178.45 63.072 177.293 62.3067 176.434 61.336C175.575 60.328 175.146 59.096 175.146 57.64C175.146 56.296 175.557 55.0267 176.378 53.832C177.199 52.6 178.226 51.4613 179.458 50.416C180.727 49.3333 182.053 48.4 183.434 47.616C186.01 46.048 188.53 44.872 190.994 44.088C190.509 43.4907 190.117 42.8 189.818 42.016C189.557 41.1947 189.426 40.4107 189.426 39.664C189.426 38.32 189.911 37.1253 190.882 36.08C191.89 34.9973 193.178 34.0827 194.746 33.336C196.314 32.5893 197.975 32.0107 199.73 31.6C201.485 31.1893 203.109 30.984 204.602 30.984C208.559 30.984 210.538 32.1973 210.538 34.624C210.538 35.744 210.109 36.7147 209.25 37.536C208.391 38.3573 207.439 38.768 206.394 38.768C205.386 38.768 204.882 38.5067 204.882 37.984C204.882 37.6107 205.125 37.424 205.61 37.424C205.759 37.424 205.946 37.4613 206.17 37.536C206.245 37.5733 206.375 37.592 206.562 37.592C207.047 37.592 207.514 37.312 207.962 36.752C208.559 36.0427 208.858 35.3707 208.858 34.736C208.858 33.728 208.279 33 207.122 32.552C206.375 32.2907 205.423 32.16 204.266 32.16C202.773 32.16 201.279 32.4213 199.786 32.944C198.33 33.4293 196.986 34.12 195.754 35.016C194.559 35.8747 193.589 36.864 192.842 37.984C192.095 39.104 191.722 40.2987 191.722 41.568C191.722 42.464 191.946 43.1733 192.394 43.696C193.813 43.2853 195.063 43.08 196.146 43.08C198.311 43.08 199.394 43.5093 199.394 44.368C199.394 44.8533 199.077 45.2827 198.442 45.656C197.807 45.992 197.117 46.16 196.37 46.16C194.503 46.16 192.917 45.6747 191.61 44.704C190.565 45.0027 189.463 45.4693 188.306 46.104C187.149 46.7387 185.935 47.5227 184.666 48.456C182.949 49.7253 181.455 51.144 180.186 52.712C178.917 54.2427 178.282 55.8853 178.282 57.64C178.282 60.9627 180.541 62.8107 185.058 63.184C185.469 60.5333 186.346 58.144 187.69 56.016C189.071 53.888 190.882 52.1333 193.122 50.752C194.391 49.968 195.829 49.352 197.434 48.904C199.077 48.4187 200.719 48.0453 202.362 47.784C204.042 47.4853 205.573 47.224 206.954 47C208.783 46.7013 210.258 46.3653 211.378 45.992C212.498 45.6187 213.338 45.2267 213.898 44.816C214.309 44.5173 214.607 44.1813 214.794 43.808C215.018 43.4347 215.13 43.0987 215.13 42.8C215.13 42.576 215.093 42.3707 215.018 42.184C214.943 41.96 215.037 41.848 215.298 41.848C215.559 41.848 215.765 42.016 215.914 42.352C216.063 42.688 216.138 43.0053 216.138 43.304C216.138 44.0507 215.765 44.8533 215.018 45.712C214.197 46.5333 213.207 47.1493 212.05 47.56C210.893 47.9707 209.679 48.288 208.41 48.512C207.141 48.736 205.89 48.9973 204.658 49.296C205.367 49.968 205.722 50.976 205.722 52.32C205.722 55.0827 204.154 57.7333 201.018 60.272C198.853 61.9893 196.538 63.184 194.074 63.856C191.647 64.4907 189.034 64.808 186.234 64.808C186.197 65.032 186.159 65.2747 186.122 65.536C186.122 65.76 186.122 65.984 186.122 66.208C186.122 68.7093 186.962 70.744 188.642 72.312C190.359 73.88 192.599 74.664 195.362 74.664C196.295 74.664 197.098 74.3467 197.77 73.712C198.442 73.1147 198.778 72.424 198.778 71.64C198.778 71.3787 198.722 71.1173 198.61 70.856C198.573 70.7813 198.554 70.688 198.554 70.576C198.554 70.352 198.703 70.24 199.002 70.24C199.413 70.24 199.618 70.7253 199.618 71.696C199.618 72.704 199.189 73.5813 198.33 74.328C197.471 75.112 196.482 75.504 195.362 75.504ZM196.09 45.264C197.023 45.264 197.565 45.04 197.714 44.592C197.751 44.2187 197.21 44.032 196.09 44.032C195.194 44.032 194.186 44.144 193.066 44.368C193.999 44.9653 195.007 45.264 196.09 45.264ZM186.402 63.24C188.829 63.24 191.311 62.848 193.85 62.064C196.426 61.28 198.591 60.0853 200.346 58.48C202.698 56.352 203.874 54.168 203.874 51.928C203.874 50.2853 203.165 49.464 201.746 49.464C201.335 49.464 200.421 49.632 199.002 49.968C191.797 52.656 187.597 57.08 186.402 63.24Z" fill="white"/>
<path d="M12.3512 75.272C11.6792 75.272 11.3432 74.8427 11.3432 73.984C11.3432 73.1627 11.6792 72.1173 12.3512 70.848L23.1592 55.28C26.4819 50.5013 28.9459 46.5813 30.5512 43.52C32.1566 40.4587 32.9592 38.2933 32.9592 37.024C32.9592 36.4267 32.7352 35.9787 32.2872 35.68C31.8392 35.3813 31.3166 35.176 30.7192 35.064C30.1219 34.952 29.5619 34.896 29.0392 34.896C25.8659 34.896 21.4419 36.8373 15.7672 40.72C14.1619 41.8027 12.6872 43.016 11.3432 44.36C9.99922 45.704 8.74855 47.1413 7.59122 48.672C5.35122 51.7333 4.23122 54.3093 4.23122 56.4C4.23122 58.0053 4.97789 58.976 6.47122 59.312C7.03122 59.4613 7.66589 59.536 8.37522 59.536C9.71922 59.536 11.0632 59.2 12.4072 58.528C13.7512 57.856 15.0579 56.9973 16.3272 55.952C17.2979 55.1307 17.8579 54.72 18.0072 54.72C18.1566 54.72 18.2126 54.8507 18.1752 55.112C17.9512 55.896 17.4099 56.6427 16.5512 57.352C15.6926 58.0613 14.6659 58.7147 13.4712 59.312C12.2766 59.872 11.0632 60.32 9.83122 60.656C8.63655 60.9547 7.57255 61.104 6.63922 61.104C5.14589 61.104 3.83922 60.7307 2.71922 59.984C1.59922 59.2 1.03922 58.0613 1.03922 56.568C1.03922 54.2907 2.36455 51.4907 5.01522 48.168C7.55389 44.9573 10.6899 42.1013 14.4232 39.6C15.9539 38.5547 17.7459 37.5653 19.7992 36.632C21.8526 35.6613 23.9246 34.8773 26.0152 34.28C28.1059 33.6453 29.9726 33.328 31.6152 33.328C34.5646 33.328 36.0392 34.2987 36.0392 36.24C36.0392 38.592 34.2659 42.6427 30.7192 48.392C28.2179 52.3493 24.9139 57.0533 20.8072 62.504C17.4099 67.0213 15.6926 69.28 15.6552 69.28C15.7672 69.28 17.5592 67.3573 21.0312 63.512C23.1592 61.1227 25.1566 58.9947 27.0232 57.128C28.9272 55.224 30.6819 53.5627 32.2872 52.144C33.0712 51.4347 34.0232 50.5573 35.1432 49.512C36.2632 48.4293 37.5699 47.1787 39.0632 45.76C40.3699 44.5653 41.6392 43.4827 42.8712 42.512C44.1406 41.5413 45.2979 41.056 46.3432 41.056C47.4259 41.056 48.1352 41.3173 48.4712 41.84C45.0366 46.096 41.8259 51.304 38.8392 57.464C36.7112 61.8693 35.6472 65.2107 35.6472 67.488C35.6472 68.832 36.0019 69.8027 36.7112 70.4C37.4206 70.9973 38.3539 71.296 39.5112 71.296C40.7806 71.296 42.1059 70.9413 43.4872 70.232C44.9059 69.5227 46.3059 68.608 47.6872 67.488C49.0686 66.368 50.3566 65.192 51.5512 63.96C55.8446 59.6293 59.2606 54.944 61.7992 49.904C63.7779 45.9467 64.7672 42.792 64.7672 40.44C64.7672 40.216 64.7486 40.0107 64.7112 39.824C64.7112 39.6373 64.6926 39.4693 64.6552 39.32C63.8712 39.32 63.0312 38.9093 62.1352 38.088C61.5752 37.64 61.2952 37.1733 61.2952 36.688C61.2952 36.24 61.4819 35.8667 61.8552 35.568C62.2286 35.2693 62.6579 35.12 63.1432 35.12C63.8526 35.12 64.3752 35.4373 64.7112 36.072C64.8606 36.3707 65.1592 36.744 65.6072 37.192C65.9059 37.4907 66.0366 37.7147 65.9992 37.864C66.2232 38.2 66.5966 38.368 67.1192 38.368C67.6419 38.368 68.1272 38.144 68.5752 37.696C69.0606 37.248 69.5832 37.024 70.1432 37.024C70.4419 37.024 70.5912 37.136 70.5912 37.36C70.5912 37.7707 70.2366 38.1627 69.5272 38.536C69.1539 38.7973 68.7059 38.9653 68.1832 39.04C67.8846 39.0773 67.5859 39.1147 67.2872 39.152C66.9886 39.152 66.6899 39.1147 66.3912 39.04C66.8392 40.5333 67.0632 41.6347 67.0632 42.344C67.0632 45.3307 65.6446 49.1947 62.8072 53.936C61.3886 56.3253 59.7646 58.584 57.9352 60.712C56.1059 62.84 54.0526 64.8373 51.7752 66.704C47.2579 70.512 43.2446 72.416 39.7352 72.416C35.8899 72.416 33.9672 70.624 33.9672 67.04C33.9672 65.36 34.3219 63.456 35.0312 61.328C35.7406 59.1627 36.5806 57.016 37.5512 54.888L41.5832 46.096C39.9406 47.3653 38.5966 48.4107 37.5512 49.232C36.5432 50.016 35.6846 50.688 34.9752 51.248C34.3032 51.808 33.6499 52.3867 33.0152 52.984C32.4179 53.544 31.6899 54.2347 30.8312 55.056C29.8979 55.9893 28.6472 57.3333 27.0792 59.088C25.5112 60.8053 23.6819 62.952 21.5912 65.528L15.0952 73.48C14.7219 73.928 14.2926 74.3387 13.8072 74.712C13.3219 75.0853 12.8366 75.272 12.3512 75.272ZM76.1221 49.736C75.4874 49.736 74.9274 49.5307 74.4421 49.12C73.9941 48.7093 73.7701 48.2427 73.7701 47.72C73.7701 46.6747 74.4794 46.152 75.8981 46.152C76.4208 46.152 76.9434 46.3387 77.4661 46.712C77.9888 47.048 78.2501 47.4773 78.2501 48C78.2501 48.448 78.0074 48.8587 77.5221 49.232C77.0368 49.568 76.5701 49.736 76.1221 49.736ZM65.7621 69.616C64.9408 69.616 64.2688 69.3547 63.7461 68.832C63.1861 68.272 62.9061 67.3013 62.9061 65.92C62.9061 65.136 63.0928 64.24 63.4661 63.232C63.8021 62.1867 64.2314 61.1413 64.7541 60.096C65.3141 59.0507 65.8554 58.1173 66.3781 57.296C68.4688 53.8987 70.1861 52.1813 71.5301 52.144C71.8661 52.144 72.2768 52.2933 72.7621 52.592C73.2474 52.8533 73.4901 53.152 73.4901 53.488C73.4901 53.488 72.0714 55.3173 69.2341 58.976C66.4341 62.5973 65.0341 65.1733 65.0341 66.704C65.0341 67.8987 65.5008 68.496 66.4341 68.496C67.0314 68.496 67.7968 68.2533 68.7301 67.768C69.7008 67.2453 70.7088 66.592 71.7541 65.808C72.7994 65.024 73.7888 64.184 74.7221 63.288C75.6928 62.392 76.4768 61.5707 77.0741 60.824C77.4474 60.3387 77.7648 60.0027 78.0261 59.816C78.3248 59.6293 78.5114 59.536 78.5861 59.536C78.7354 59.536 78.8101 59.648 78.8101 59.872C78.8101 60.0587 78.5861 60.432 78.1381 60.992C77.7274 61.552 77.1488 62.2053 76.4021 62.952C75.5061 63.848 74.5168 64.8187 73.4341 65.864C72.3514 66.9093 71.1754 67.8053 69.9061 68.552C68.6368 69.2613 67.2554 69.616 65.7621 69.616ZM80.6349 69.112C79.5522 69.112 78.5442 68.8507 77.6109 68.328C76.6776 67.768 76.2109 66.8533 76.2109 65.584C76.2109 63.8293 76.8269 61.7387 78.0589 59.312C79.3282 56.8853 80.7656 54.3653 82.3709 51.752C86.7389 44.6587 89.8376 41.112 91.6669 41.112C92.0402 41.112 92.4136 41.2613 92.7869 41.56C93.1976 41.8213 93.4216 42.12 93.4589 42.456L89.5389 47.72C88.0082 49.7733 86.6269 51.6773 85.3949 53.432C84.1629 55.1493 83.0989 56.6987 82.2029 58.08C81.7549 58.7893 81.2509 59.592 80.6909 60.488C80.1309 61.384 79.6269 62.3173 79.1789 63.288C78.7682 64.2213 78.5629 65.1733 78.5629 66.144C78.5629 66.592 78.6936 67.0027 78.9549 67.376C79.2162 67.712 79.6829 67.88 80.3549 67.88C81.5496 67.88 83.1176 67.2453 85.0589 65.976C87.0002 64.6693 88.9229 62.8773 90.8269 60.6C91.0136 60.376 91.2189 60.1707 91.4429 59.984C91.6669 59.7973 91.8536 59.704 92.0029 59.704C92.1896 59.704 92.2829 59.816 92.2829 60.04C92.2829 60.152 92.1522 60.376 91.8909 60.712C91.6669 61.0107 91.4802 61.2533 91.3309 61.44L89.9869 62.952C89.2402 63.7733 88.3442 64.6693 87.2989 65.64C86.2909 66.6107 85.2082 67.432 84.0509 68.104C82.9309 68.776 81.7922 69.112 80.6349 69.112ZM93.7481 69.28C92.6281 69.28 91.6761 68.9813 90.8921 68.384C90.1081 67.7493 89.6601 66.984 89.5481 66.088C89.3988 64.8933 89.5668 63.6987 90.0521 62.504C90.5748 61.272 91.2654 60.096 92.1241 58.976C93.0201 57.856 93.9721 56.8107 94.9801 55.84C98.9374 51.8827 102.503 49.904 105.676 49.904C106.759 49.904 107.487 50.184 107.86 50.744C108.009 50.9307 108.177 51.36 108.364 52.032C112.545 45.2373 115.457 41.84 117.1 41.84C117.473 41.84 117.865 41.9333 118.276 42.12C118.687 42.3067 118.892 42.5493 118.892 42.848C118.892 43.0347 118.799 43.2773 118.612 43.576C117.492 44.9573 116.372 46.3387 115.252 47.72C114.132 49.064 113.031 50.4267 111.948 51.808C110.119 54.1227 108.644 56.1387 107.524 57.856C106.404 59.5733 105.601 61.0293 105.116 62.224C104.967 62.5973 104.817 63.064 104.668 63.624C104.556 64.1467 104.5 64.688 104.5 65.248C104.5 65.9573 104.649 66.5733 104.948 67.096C105.247 67.6187 105.788 67.88 106.572 67.88C107.804 67.88 109.316 67.2827 111.108 66.088C112.9 64.8933 114.991 62.9333 117.38 60.208C117.529 60.0587 117.66 59.928 117.772 59.816C117.921 59.704 118.071 59.6293 118.22 59.592C118.556 59.5173 118.724 59.592 118.724 59.816C118.724 59.928 118.612 60.1333 118.388 60.432C117.231 61.8133 115.943 63.176 114.524 64.52C113.105 65.864 111.649 66.984 110.156 67.88C108.7 68.7387 107.337 69.168 106.068 69.168C104.799 69.168 103.903 68.7387 103.38 67.88C102.857 67.0213 102.596 66.0507 102.596 64.968C102.596 63.848 102.801 62.8213 103.212 61.888L98.6761 66.424C97.6681 67.432 96.7348 68.16 95.8761 68.608C95.0548 69.056 94.3454 69.28 93.7481 69.28ZM93.2441 68.048C94.8494 68.048 97.5188 65.8453 101.252 61.44C101.439 61.216 102.092 60.3947 103.212 58.976C104.332 57.52 105.919 55.4107 107.972 52.648C107.711 52.2 107.263 51.976 106.628 51.976C104.313 51.976 101.215 53.8053 97.3321 57.464C93.6734 60.8613 91.8441 63.7173 91.8441 66.032C91.8441 67.376 92.3108 68.048 93.2441 68.048ZM119.889 69.28C118.993 69.28 118.097 68.9627 117.201 68.328C116.305 67.6933 115.801 66.9467 115.689 66.088C115.315 63.2133 117.126 59.7973 121.121 55.84C125.078 51.8827 128.643 49.904 131.817 49.904C132.675 49.904 133.347 50.1093 133.833 50.52C134.094 50.7813 134.281 51.136 134.393 51.584C134.542 52.032 134.654 52.256 134.729 52.256C134.878 52.256 135.009 52.2373 135.121 52.2C135.233 52.1253 135.363 52.088 135.513 52.088C135.961 52.088 136.353 52.256 136.689 52.592C137.025 52.928 137.211 53.2267 137.249 53.488C137.286 53.5627 136.091 55.4107 133.665 59.032C131.238 62.5787 130.137 64.9867 130.361 66.256C130.547 67.1147 130.958 67.544 131.593 67.544C133.534 67.544 137.081 64.3333 142.233 57.912C142.345 57.7627 142.457 57.688 142.569 57.688C142.755 57.688 142.849 57.8187 142.849 58.08C142.849 58.3787 142.681 58.752 142.345 59.2C137.603 65.584 133.963 68.776 131.425 68.776C131.089 68.776 130.771 68.72 130.473 68.608C128.83 67.9733 128.009 66.7413 128.009 64.912C128.009 64.2773 128.083 63.6427 128.233 63.008L124.761 66.368C123.715 67.4133 122.763 68.16 121.905 68.608C121.083 69.056 120.411 69.28 119.889 69.28ZM119.385 68.048C121.55 68.048 124.499 65.6773 128.233 60.936L134.169 52.76C133.87 52.2373 133.385 51.976 132.713 51.976C130.435 51.976 127.355 53.8053 123.473 57.464C119.441 61.1973 117.63 64.2773 118.041 66.704C118.227 67.6 118.675 68.048 119.385 68.048ZM153.495 69.112C152.487 69.112 151.778 68.832 151.367 68.272C150.956 67.6747 150.751 66.9467 150.751 66.088C150.751 63.9227 151.498 61.608 152.991 59.144L156.575 53.32C154.036 55.1867 151.516 57.52 149.015 60.32C148.343 61.0667 147.578 61.944 146.719 62.952C145.898 63.96 144.983 65.1173 143.975 66.424C142.631 68.1787 141.828 69.056 141.567 69.056C141.044 69.056 140.615 68.832 140.279 68.384C139.943 67.8987 139.775 67.4693 139.775 67.096C139.775 66.7973 139.868 66.256 140.055 65.472C140.242 64.6507 140.466 63.9413 140.727 63.344C140.988 62.7093 141.25 62.0933 141.511 61.496C141.81 60.8613 142.09 60.2453 142.351 59.648L138.991 63.176C138.916 63.2507 138.692 63.4747 138.319 63.848C137.946 64.2213 137.647 64.408 137.423 64.408C137.236 64.408 137.143 64.2773 137.143 64.016C137.143 63.9413 137.18 63.848 137.255 63.736C137.292 63.5867 137.404 63.4187 137.591 63.232C138.151 62.672 138.73 62.0747 139.327 61.44C139.924 60.8053 140.54 60.0773 141.175 59.256C141.511 58.8453 142.015 58.2293 142.687 57.408C143.359 56.5493 144.087 55.6347 144.871 54.664C145.692 53.6933 146.458 52.7973 147.167 51.976C147.354 51.7147 147.559 51.5467 147.783 51.472C148.007 51.36 148.156 51.304 148.231 51.304C149.239 51.304 149.743 51.696 149.743 52.48C149.743 52.704 149.687 52.928 149.575 53.152C146.215 57.7813 144.199 61.3093 143.527 63.736C147.858 59.4053 151.33 56.1573 153.943 53.992C156.594 51.7893 158.479 50.688 159.599 50.688C160.196 50.688 160.644 50.7813 160.943 50.968C161.279 51.1547 161.447 51.5093 161.447 52.032C161.447 52.2187 161.428 52.368 161.391 52.48C161.279 52.7413 160.514 53.7867 159.095 55.616C158.236 56.6613 157.471 57.6133 156.799 58.472C156.164 59.3307 155.642 60.0773 155.231 60.712C154.559 61.7573 154.055 62.7467 153.719 63.68C153.383 64.576 153.215 65.3413 153.215 65.976C153.215 66.2373 153.252 66.5547 153.327 66.928C153.402 67.3013 153.626 67.488 153.999 67.488C154.858 67.488 156.202 66.7413 158.031 65.248C158.89 64.5013 159.692 63.7547 160.439 63.008C161.186 62.224 161.895 61.4587 162.567 60.712C162.716 60.5627 162.959 60.2827 163.295 59.872C163.631 59.424 163.836 59.2 163.911 59.2C164.06 59.2 164.135 59.3493 164.135 59.648C164.135 59.7973 164.042 60.0587 163.855 60.432C163.706 60.768 163.538 61.0293 163.351 61.216C162.94 61.7013 162.324 62.3733 161.503 63.232C160.719 64.0907 159.823 64.968 158.815 65.864C157.844 66.76 156.892 67.5253 155.959 68.16C155.026 68.7947 154.204 69.112 153.495 69.112Z" fill="white"/>
</svg>
